<svg width="54" height="54" viewBox="0 0 54 54" fill="none" xmlns="http://www.w3.org/2000/svg"><path d="M0 2.31429C0 1.7005 0.243843 1.11185 0.677886 0.677838C1.11193 0.243826 1.70062 0 2.31445 0H4.0364C6.96803 0 8.72701 1.97177 9.72994 3.80469C10.3996 5.02663 10.8841 6.44297 11.2636 7.72663C11.3663 7.71853 11.4693 7.71441 11.5722 7.71429H50.1402C52.7015 7.71429 54.5531 10.1643 53.8495 12.6298L48.2084 32.4062C47.7026 34.18 46.6326 35.7408 45.1604 36.8521C43.6881 37.9634 41.8938 38.5648 40.0492 38.5653H21.6941C19.8348 38.5653 18.0269 37.9548 16.5484 36.8276C15.0698 35.7004 14.0024 34.1188 13.5102 32.3259L11.1649 23.7723L7.27662 10.6642L7.27354 10.6395C6.79213 8.88994 6.34159 7.25143 5.66885 6.02949C5.02389 4.84149 4.50546 4.62857 4.03948 4.62857H2.31445C1.70062 4.62857 1.11193 4.38475 0.677886 3.95073C0.243843 3.51672 0 2.92807 0 2.31429ZM20.0585 54C21.6954 54 23.2653 53.3498 24.4227 52.1924C25.5802 51.0351 26.2304 49.4653 26.2304 47.8286C26.2304 46.1918 25.5802 44.6221 24.4227 43.4647C23.2653 42.3073 21.6954 41.6571 20.0585 41.6571C18.4217 41.6571 16.8518 42.3073 15.6944 43.4647C14.5369 44.6221 13.8867 46.1918 13.8867 47.8286C13.8867 49.4653 14.5369 51.0351 15.6944 52.1924C16.8518 53.3498 18.4217 54 20.0585 54ZM41.6601 54C43.2969 54 44.8668 53.3498 46.0242 52.1924C47.1817 51.0351 47.8319 49.4653 47.8319 47.8286C47.8319 46.1918 47.1817 44.6221 46.0242 43.4647C44.8668 42.3073 43.2969 41.6571 41.6601 41.6571C40.0232 41.6571 38.4533 42.3073 37.2959 43.4647C36.1384 44.6221 35.4882 46.1918 35.4882 47.8286C35.4882 49.4653 36.1384 51.0351 37.2959 52.1924C38.4533 53.3498 40.0232 54 41.6601 54Z" fill="black"/></svg>
